<svg width="140" height="102" viewBox="0 0 140 102" fill="none" xmlns="http://www.w3.org/2000/svg">
<g clip-path="url(#clip0_1_1561)">
<path d="M56.8669 101.992C54.4643 102.097 53.2825 101.181 53.0704 99.0987C53.0643 91.16 54.0751 85.6138 55.2734 77.4704C56.5087 68.9588 56.4696 71.1219 57.8551 64.5997C57.8593 64.5728 58.1619 62.8978 58.5243 61.7666C58.8146 60.865 59.6422 60.4349 61.5796 60.1784C63.239 59.9179 66.1543 60.499 66.7451 61.0718C67.2331 61.475 67.3031 61.6963 67.0396 63.5202C64.5998 77.0237 62.7778 84.7412 62.7634 92.6179C62.9548 92.835 63.2513 92.9405 63.5354 92.8929C67.2146 92.3035 70.1401 91.2406 73.4487 90.4776H73.4507C76.2796 89.8634 76.259 93.9868 76.8169 95.7921C76.854 99.0098 72.691 98.7389 70.5457 99.564C65.9916 100.749 61.1101 102.019 56.869 101.994L56.8669 101.992ZM106.417 100.145C100.425 99.411 101.21 95.029 101.963 89.243C102.212 87.1048 102.589 83.8726 103.141 78.9344C103.822 72.9292 105.025 67.3975 106.983 61.9134C107.537 60.3005 109.182 59.5539 110.769 59.7483C113.517 59.9882 115.56 62.4325 115.321 65.1931C115.302 65.3979 113.701 85.0307 112.132 92.6447C112.076 95.4137 110.39 100.333 106.417 100.145ZM30.2381 100.066C27.7757 100.234 26.9337 98.0048 27.2219 96.6751C27.2363 96.3484 27.6419 68.781 27.9693 65.555L28.7146 55.0438C28.7228 54.866 28.9328 50.8873 31.9572 50.6247C33.7278 50.4716 35.3934 50.3931 36.9046 50.3931C42.2616 50.3931 46.021 51.3422 48.3969 53.2923C52.8563 56.967 52.6525 65.4144 49.9596 70.4994C47.7216 75.0488 42.3172 80.3758 36.674 82.7043C36.6843 83.0972 36.8881 92.6716 36.3981 95.9245C36.009 98.803 33.9543 100.002 30.234 100.069L30.2381 100.066ZM39.1219 58.9315C38.5043 59.0018 37.201 58.7412 37.1454 59.6863C37.1454 61.2103 37.0857 63.1852 37.0219 65.2759C36.9519 67.6209 36.8778 70.0445 36.8675 72.3378C36.8469 72.8444 37.4604 73.196 37.8825 72.9127C42.7475 70.4746 48.0428 59.2624 39.1199 58.9336L39.1219 58.9315ZM122.854 92.6365C120.59 92.6365 119.406 91.0421 119.336 87.8989C119.019 80.4771 119.292 79.0316 119.628 73.3842C119.904 68.1027 119.463 57.5832 122.449 57.12C122.778 57.0435 127.26 56.0075 132.24 54.775C134.085 54.3717 136.173 53.5963 136.873 55.6538C137.509 57.5605 137.686 58.1457 137.554 58.946C137.602 60.1371 135.469 61.2641 133.437 61.8576C132.045 62.3911 129.972 63.1438 127.322 63.6836C127.279 65.6398 127.205 67.5857 127.106 69.5771L127.542 69.4241C127.456 69.4986 129.887 68.6155 132.71 68.204C133.509 68.204 133.927 68.5618 133.955 69.2669L133.418 72.5198C133.488 74.0418 132.29 75.4955 130.785 75.5617C130.719 75.5948 127.182 76.5315 127.114 76.5584C127.011 77.6006 126.912 78.6325 126.855 79.286C126.747 81.1451 125.842 83.5232 128.281 82.4044C129.914 81.8109 132.152 80.9962 134.561 79.7409C136.58 78.4898 139.137 79.1206 139.78 80.473C140.214 81.2216 140 84.4765 139.123 85.6924C138.45 86.625 130.266 90.0371 125.376 92.074C125.352 92.0843 124.16 92.6365 122.852 92.6365H122.854ZM85.0851 90.8787C81.859 90.8787 74.091 87.8741 74.019 80.4399C74.0581 67.7098 74.3834 62.4407 81.5831 65.8445C84.626 67.6064 84.4304 69.4613 84.0784 72.8279C83.891 76.5108 82.9275 80.6715 85.9437 81.2257C91.7681 81.2236 87.7348 60.4266 93.8825 58.7433C95.5481 58.3318 97.9445 58.5944 99.0048 59.6842C100.257 60.714 100.075 62.0251 99.8675 64.2522C97.8972 76.5625 100.129 90.399 85.0872 90.8767L85.0851 90.8787ZM78.5546 59.1073C75.0957 58.9625 69.8004 57.8231 68.2234 54.4131C66.7719 47.4484 66.251 39.9191 65.1393 32.7537H65.1351C64.7378 29.778 64.3466 26.9429 63.9801 24.2277C63.7928 22.9104 57.816 25.0776 56.8566 25.4209C56.0351 25.8655 56.5354 26.9408 56.416 27.7742C56.4304 31.2504 56.519 38.0765 56.2987 42.109C56.171 44.6959 55.9672 47.0286 55.6934 49.0386C55.6007 49.5597 54.3037 49.3157 53.8178 49.3674C51.3019 49.264 45.8913 48.3334 45.776 45.1922C45.9696 41.3997 46.2228 37.5596 46.5296 33.7794C46.5296 33.8311 46.4801 33.9428 46.4534 33.9573L46.0951 33.4548L46.2228 33.4237L46.5316 33.7629C47.3243 24.451 48.2343 14.8683 50.3631 6.02797C50.921 3.04397 53.3422 0.64105 56.3213 0.132342C61.7134 -0.545934 67.8301 1.38757 69.2528 7.08675C72.0754 15.5321 73.8934 27.6894 75.9172 36.9888C77.694 45.6534 79.2319 52.6843 80.2098 57.0559C80.4651 58.0754 79.6066 59.1486 78.5587 59.1093L78.5546 59.1073ZM57.4413 10.0521C56.5663 12.5543 56.1875 15.3067 56.344 17.9557C58.2649 17.3436 60.2537 16.899 62.2651 16.6488C62.5493 14.3369 62.4772 11.9567 61.9687 9.68819C61.4272 7.92425 58.8763 7.54582 57.8531 9.07608H57.709C57.746 9.37179 57.5154 9.61374 57.4743 9.89705H57.4701L57.4413 10.0521ZM110.577 55.7945C106.161 56.0633 98.5951 42.7852 93.831 36.8461C93.409 37.0012 92.9951 37.1418 92.5978 37.2618C93.2669 40.2561 94.5166 50.1821 93.3266 52.7505C92.7522 53.9313 91.3275 54.5041 88.9763 54.5041C85.3301 55.0645 83.3104 51.0672 83.0634 49.0014C82.4087 41.6768 78.3487 18.605 78.2498 13.0134C79.7795 8.0566 91.1463 4.69003 99.254 7.33696C111.024 11.4997 107.845 26.0764 101.416 32.7496C101.782 33.1797 112.383 45.306 115.535 48.685C116.982 50.2276 117.717 51.669 117.553 52.6388C116.935 54.6861 111.426 55.871 110.575 55.7945H110.577ZM90.9487 28.3697C99.3198 27.5281 99.3425 9.46278 89.2254 15.7451C89.5281 19.8706 90.7469 24.2091 90.9487 28.3697ZM133.362 50.0539C130.293 50.0229 127.067 46.9624 127.326 44.4375C127.571 41.9828 127.814 39.5013 128.053 37.0612C128.191 35.7274 128.316 34.315 128.448 33.0122C128.506 32.3939 128.701 30.3632 128.701 30.3632C128.726 30.0985 128.541 29.8669 128.275 29.8338C127.233 29.7718 122.722 29.2941 122.379 30.4004C121.845 32.7537 121.489 34.2943 120.738 37.512C120.2 39.2677 120.077 42.1917 118.137 42.901C116.612 43.4697 112.202 39.6068 112.671 37.0819C112.937 36.234 113.2 35.4048 113.476 34.5508C113.482 34.557 113.353 34.7058 113.349 34.712L113.071 34.1537C113.139 34.1227 113.266 34.1392 113.334 34.1661L113.48 34.5363C115.78 27.5033 118.228 20.2697 121.485 13.8178C122.449 11.6362 124.726 10.232 127.1 10.3913C131.503 10.9165 135.644 13.4063 135.771 18.086C136.3 23.2372 135.837 31.0642 135.658 36.7159C135.514 40.9551 135.438 43.5503 135.337 47.6531C135.29 49.3343 134.701 50.0539 133.367 50.0539H133.362ZM125.879 24.0974C126.828 24.0974 127.787 24.1533 128.734 24.2546C129.385 22.5072 129.776 20.6192 129.795 18.7457C129.692 17.2257 127.721 16.4461 126.612 17.4822H126.445L126.428 17.6662C126.321 17.7882 126.231 17.9206 126.159 18.0674L126.12 18.0839C125.043 19.943 124.133 22.0274 123.797 24.1801C124.485 24.1305 125.189 24.0974 125.879 24.0995V24.0974ZM25.9599 47.1837C24.7554 47.1837 23.1701 46.8176 22.4578 45.0723C22.4578 45.0682 19.8699 39.9397 19.8678 39.9315C19.8246 39.8446 19.7854 39.7681 19.7484 39.7081L19.7566 39.7123C9.46662 14.3203 22.7357 8.88377 3.96956 20.5613C3.68133 20.7371 3.1028 21.0348 2.47486 21.0348C1.42898 21.0348 0.706328 20.187 0.329563 18.5161C-2.07308 9.31389 9.27515 7.02885 15.0769 4.21027C21.1937 2.3781 32.2228 -1.73912 38.9819 2.72344C41.2466 4.23923 42.7969 6.47464 43.5916 9.36559C46.4781 19.8665 42.7331 29.1473 31.6834 30.0303C30.8043 30.0716 29.219 29.9786 28.7866 28.0203C28.7907 28.0058 27.3969 22.9208 27.0881 21.7628L27.0943 21.7586C26.4499 19.4839 25.4349 12.728 29.4187 12.4861C30.5016 12.5047 31.3869 13.092 31.846 14.1073C32.509 15.5611 32.196 17.5235 31.0657 18.9938C29.7996 20.4786 32.3134 22.4596 33.4499 20.8818C36.8078 17.3229 35.274 9.48553 29.6966 9.58066C27.679 9.56204 26.0237 10.23 24.9449 11.5638C20.6296 16.8969 26.386 31.6536 29.4475 37.4562C30.8125 40.1383 32.229 42.8886 31.8934 43.7819C31.4075 45.5355 28.521 47.1816 25.9599 47.1837Z" fill="white"/>
</g>
<defs>
<clipPath id="clip0_1_1561">
<rect width="140" height="102" fill="white"/>
</clipPath>
</defs>
</svg>
